<svg xmlns="http://www.w3.org/2000/svg" version="1.1" xmlns:xlink="http://www.w3.org/1999/xlink" xmlns:svgjs="http://svgjs.dev/svgjs" width="1440" height="560" preserveAspectRatio="none" viewBox="0 0 1440 560"><g mask="url(&quot;#SvgjsMask1054&quot;)" fill="none"><rect width="1440" height="560" x="0" y="0" fill="#0e2a47"></rect><path d="M 0,431 C 96,384.6 288,220.2 480,199 C 672,177.8 768,330 960,325 C 1152,320 1344,204.2 1440,174L1440 560L0 560z" fill="rgba(55, 142, 233, 1)"></path><path d="M 0,182 C 72,251 216,514.8 360,527 C 504,539.2 576,249.6 720,243 C 864,236.4 936,492.4 1080,494 C 1224,495.6 1368,299.6 1440,251L1440 560L0 560z" fill="rgba(100, 167, 239, 1)"></path></g><defs><mask id="SvgjsMask1054"><rect width="1440" height="560" fill="#ffffff"></rect></mask></defs></svg>